<svg xmlns="http://www.w3.org/2000/svg" width="760" height="330" viewBox="0 0 760 330" role="img" aria-labelledby="t d"><title id="t">STM32F103C8T6 Blue Pill reference pin illustration</title><desc id="d">Conceptual board illustration listing common module pins.</desc><style>.bg{fill:#081b2c}.card{fill:#12314a;stroke:#43d3b3;stroke-width:2}.h{font:700 25px sans-serif;fill:#fff}.s{font:15px sans-serif;fill:#b9d4e7}.pin{font:15px monospace;fill:#fff}.dot{fill:#ffca58}</style><rect width="760" height="330" class="bg" rx="20"/><text x="28" y="42" class="h">STM32F103C8T6 Blue Pill</text><text x="28" y="70" class="s">Conceptual pin reference • confirm the exact breakout silk screen</text><rect x="20" y="84" width="205" height="196" rx="13" class="card"/><text x="28" y="105" class="pin">3V3/GND</text><circle cx="205" cy="100" r="5" class="dot"/><text x="28" y="134" class="pin">PA9/PA10</text><circle cx="205" cy="129" r="5" class="dot"/><text x="28" y="163" class="pin">PB6/PB7</text><circle cx="205" cy="158" r="5" class="dot"/><text x="28" y="192" class="pin">PA5–7</text><circle cx="205" cy="187" r="5" class="dot"/><text x="28" y="221" class="pin">SWDIO/SWCLK</text><circle cx="205" cy="216" r="5" class="dot"/><text x="28" y="250" class="pin">BOOT0</text><circle cx="205" cy="245" r="5" class="dot"/><rect x="300" y="105" width="330" height="130" rx="20" class="card"/><text x="330" y="155" class="h">BOARD</text><text x="330" y="187" class="s">Interface: GPIO / serial buses</text><path d="M630 170H710" stroke="#ffca58" stroke-width="5"/><path d="M700 160l15 10-15 10" fill="none" stroke="#ffca58" stroke-width="5"/></svg>